<svg xmlns="http://www.w3.org/2000/svg" viewBox="0 0 64 64" role="img" aria-label="S icon">
  <rect width="64" height="64" rx="14" fill="#08090d"/>
  <path
    d="M46 16C43 12 38 10 31 10C22 10 16 14 16 21C16 29 22 32 31 34C39 36 44 39 44 46C44 54 37 58 28 58C20 58 14 55 11 50"
    fill="none"
    stroke="#ff4b55"
    stroke-width="10"
    stroke-linecap="round"
    stroke-linejoin="round"
    opacity="0.38"
  />
  <path
    d="M46 16C43 12 38 10 31 10C22 10 16 14 16 21C16 29 22 32 31 34C39 36 44 39 44 46C44 54 37 58 28 58C20 58 14 55 11 50"
    fill="none"
    stroke="#ffd84a"
    stroke-width="7"
    stroke-linecap="round"
    stroke-linejoin="round"
  />
</svg>
